<svg xmlns="http://www.w3.org/2000/svg" xmlns:xlink="http://www.w3.org/1999/xlink" version="1.1" width="256" height="256" viewBox="0 0 256 256" xml:space="preserve">
<g style="stroke: none; stroke-width: 0; stroke-dasharray: none; stroke-linecap: butt; stroke-linejoin: miter; stroke-miterlimit: 10; fill: none; fill-rule: nonzero; opacity: 1;" transform="translate(1.4065934065934016 1.4065934065934016) scale(2.81 2.81)">
	<path d="M 85.116 33.007 c 4.423 6.718 -3.762 12.97 -14.382 9.47 c -4.612 -1.52 -9.605 -4.988 -14.155 -9.479 c -3.505 -3.46 -8.549 -2.927 -11.579 0.567 c -3.03 -3.494 -8.074 -4.028 -11.579 -0.567 c -4.55 4.492 -9.543 7.959 -14.155 9.479 c -10.62 3.5 -18.805 -2.752 -14.382 -9.47 c -3.524 1.1 -5.991 5.712 -4.381 12.192 C 4.832 62.629 30.891 64.577 45 47.531 c 14.109 17.046 40.168 15.098 44.497 -2.332 C 91.107 38.719 88.64 34.107 85.116 33.007 z" style="stroke: none; stroke-width: 1; stroke-dasharray: none; stroke-linecap: butt; stroke-linejoin: miter; stroke-miterlimit: 10; fill: rgb(211,0,0); fill-rule: nonzero; opacity: 1;" transform=" matrix(1 0 0 1 0 0) " stroke-linecap="round"/>
</g>
</svg>