<svg id="visual" viewBox="0 0 900 600" width="900" height="600" xmlns="http://www.w3.org/2000/svg" xmlns:xlink="http://www.w3.org/1999/xlink" version="1.1"><rect x="0" y="0" width="900" height="600" fill="#CCCCCC"></rect><path d="M0 380L21.5 379.5C43 379 86 378 128.8 390C171.7 402 214.3 427 257.2 430.8C300 434.7 343 417.3 385.8 422.2C428.7 427 471.3 454 514.2 457.2C557 460.3 600 439.7 642.8 446.3C685.7 453 728.3 487 771.2 504C814 521 857 521 878.5 521L900 521L900 601L878.5 601C857 601 814 601 771.2 601C728.3 601 685.7 601 642.8 601C600 601 557 601 514.2 601C471.3 601 428.7 601 385.8 601C343 601 300 601 257.2 601C214.3 601 171.7 601 128.8 601C86 601 43 601 21.5 601L0 601Z" fill="#ef0e0e" stroke-linecap="round" stroke-linejoin="miter"></path></svg>